HIERARCHY
ROOT Hips
{
  OFFSET -223.776 96.9323 -124.949
  CHANNELS 6 Xposition Yposition Zposition Zrotation Xrotation Yrotation
  JOINT RightUpLeg
  {
    OFFSET -8.9458 -8.66707 0.101652
    CHANNELS 3 Zrotation Xrotation Yrotation
    JOINT RightLeg
    {
      OFFSET 0 -44.4227 1.3727
      CHANNELS 3 Zrotation Xrotation Yrotation
      JOINT RightFoot
      {
        OFFSET 0.253549 -42.0924 -1.46059
        CHANNELS 3 Zrotation Xrotation Yrotation
        JOINT RightToes
        {
          OFFSET 0.04 -4.41509 8.4991
          CHANNELS 3 Zrotation Xrotation Yrotation
          End Site
          {
            OFFSET -0.08 -0.137448 9.77979
          }
        }
      }
    }
  }
  JOINT Spine
  {
    OFFSET 0 11.8905 0
    CHANNELS 3 Zrotation Xrotation Yrotation
    JOINT Spine1
    {
      OFFSET 0 25.6574 0.127663
      CHANNELS 3 Zrotation Xrotation Yrotation
      JOINT HEad
      {
        OFFSET 0 8.73416 0.011341
        CHANNELS 3 Zrotation Xrotation Yrotation
        End Site
        {
          OFFSET -0.29 12.7742 2.51395
        }
      }
      JOINT LeftShoulder1
      {
        OFFSET 8.99 -0.362252 -0.22
        CHANNELS 3 Zrotation Xrotation Yrotation
        JOINT LeftArm
        {
          OFFSET 10.2827 -0.00338 0.322123
          CHANNELS 3 Zrotation Xrotation Yrotation
          JOINT LeftForeArm
          {
            OFFSET 32.7669 0.099144 -1.42434
            CHANNELS 3 Zrotation Xrotation Yrotation
            JOINT LeftHand
            {
              OFFSET 27.5643 0.085362 1.02216
              CHANNELS 3 Zrotation Xrotation Yrotation
              End Site
              {
                OFFSET 16.7443 -0.6 1.50291
              }
            }
          }
        }
      }
      JOINT RightShoulder
      {
        OFFSET -8.99 -0.362252 -0.22
        CHANNELS 3 Zrotation Xrotation Yrotation
        JOINT RightArm
        {
          OFFSET -10.2827 -0.00338 0.322123
          CHANNELS 3 Zrotation Xrotation Yrotation
          JOINT RightForeArm
          {
            OFFSET -32.8971 0.099144 -1.42434
            CHANNELS 3 Zrotation Xrotation Yrotation
            JOINT RightHand
            {
              OFFSET -27.4921 0.085362 1.02216
              CHANNELS 3 Zrotation Xrotation Yrotation
              End Site
              {
                OFFSET -16.6312 -0.6 1.50291
              }
            }
          }
        }
      }
    }
  }
  JOINT LeftUpLeg
  {
    OFFSET 8.9458 -8.66707 0.101652
    CHANNELS 3 Zrotation Xrotation Yrotation
    JOINT LeftLeg
    {
      OFFSET 0 -44.4227 1.3727
      CHANNELS 3 Zrotation Xrotation Yrotation
      JOINT LeftFoot
      {
        OFFSET -0.253549 -42.0924 -1.46059
        CHANNELS 3 Zrotation Xrotation Yrotation
        JOINT LeftToes
        {
          OFFSET -0.04 -4.41509 8.4991
          CHANNELS 3 Zrotation Xrotation Yrotation
          End Site
          {
            OFFSET 0.08 -0.047448 9.77979
          }
        }
      }
    }
  }
}
MOTION
Frames:	7
Frame Time:	0.0166667
-225.792 99.7049 -122.077 9.29034 7.06691 130.711 -19.2115 2.93354 -9.63921 22.9548 29.3215 -19.5051 -14.1422 -1.02518 -0.99467 0.0462048 0.000533403 0.662642 0.896516 20.3563 -23.9216 -0.0192265 0.025562 0.0259286 -9.02483 4.56587 20.037 1.59028e-015 1.98785e-016 -0 138.282 -61.0718 174.774 -100.215 -62.0439 -34.6366 152.838 32.4782 74.0434 6.85663 13.4309 11.3848 115.612 -5.27918 80.3203 37.1331 61.8344 57.0141 15.0128 18.1775 3.41833 20.7133 -16.4095 -16.1288 -29.4255 18.1819 79.618 -0.797715 -2.0132 -0.147593 -1.18446e-009 1.5602e-007 -4.87131e-009 
-225.988 99.4983 -122.358 9.6117 6.64193 129.711 -18.3695 1.39498 -11.387 20.9526 31.7407 -17.1683 -14.3607 -0.816075 -0.991278 0.0462048 0.000533403 0.662642 1.97657 20.038 -22.174 -0.0515747 0.0892473 0.0963446 -9.2255 4.64415 19.0899 -7.95139e-016 7.95139e-016 -0 141.95 -59.7381 177.726 -95.2829 -56.2512 -29.8389 160.11 44.0526 76.3903 6.72269 13.2649 10.373 114.866 -5.27802 80.1244 36.9469 61.0308 58.4471 14.1285 19.2616 3.15811 21.5295 -15.6129 -15.6608 -29.5477 17.2948 79.6153 -0.42064 -2.13915 -0.162327 -1.18447e-009 1.5602e-007 -4.87131e-009 
-226.09 99.2632 -122.578 9.87409 6.34054 128.836 -17.6315 0.0098698 -12.7828 19.2644 33.8128 -15.2937 -14.774 -0.618332 -0.987539 0.0462048 0.000533403 0.662642 2.53746 20.6026 -18.922 -0.055645 0.0822862 0.0813752 -8.63465 4.38527 16.6604 -7.95139e-016 -7.95139e-016 3.18055e-015 148.126 -59.8668 -176.059 -92.2544 -50.8566 -26.5639 159.855 50.6304 84.006 7.51789 12.3652 7.9134 114.022 -5.27502 79.73 36.5804 60.3864 60.321 15.8713 19.2277 3.05328 22.1744 -14.7394 -15.2508 -29.5417 16.4447 79.1976 -0.123582 -2.2856 -0.176323 -1.18446e-009 1.5602e-007 -4.87131e-009 
-226.14 99.0124 -122.707 10.0871 6.16009 128.08 -16.9618 -1.62797 -12.7329 18.5326 35.6536 -15.2845 -15.2663 -0.394111 -0.985066 0.0462048 0.000533403 0.662642 2.7877 20.9215 -15.482 -0.0110474 0.0105192 -0.0105405 -7.99247 4.50401 14.121 -0 -1.59028e-015 -0 160.136 -64.1737 -163.178 -90.9335 -46.9612 -29.0777 164.404 63.3795 88.1652 8.29528 11.7759 5.34047 113.165 -5.44871 79.2811 36.1928 59.8274 62.4282 15.4823 19.8602 2.74608 22.6927 -13.8804 -14.8792 -29.4881 15.6591 78.4912 0.129378 -2.46021 -0.19242 -1.18447e-009 1.5602e-007 -4.87131e-009 
-226.154 98.7624 -122.753 10.2539 6.08494 127.44 -16.3632 -3.30526 -11.3881 18.7955 37.2149 -16.9685 -15.7695 -0.158191 -0.986737 0.0462048 0.000533403 0.662642 2.76178 20.976 -11.963 -0.0064176 0.00990849 -0.0202906 -7.18257 4.85415 11.3873 -7.95139e-016 1.59028e-015 3.18055e-015 173.054 -66.9684 -149.413 -87.8972 -41.1883 -27.9262 161.328 72.4249 99.2547 9.20503 11.341 2.56481 112.297 -5.75883 78.7703 35.8173 59.3806 64.6821 16.6219 19.835 2.52952 23.107 -13.0825 -14.5364 -29.4119 14.9346 77.5896 0.362464 -2.65548 -0.207698 -1.18447e-009 1.5602e-007 -4.87132e-009 
-226.137 98.5201 -122.739 10.3762 6.09424 126.915 -15.8261 -4.87095 -8.89009 20.0501 38.3736 -20.1742 -16.2405 0.07777 -0.995251 0.0462048 0.000533403 0.662642 2.61982 21.0699 -8.82706 -0.0064176 0.00990849 -0.0202906 -6.322 5.08372 8.90507 -7.95139e-016 3.18055e-015 -0 -174.479 -68.3755 -136.054 -88.7035 -25.9334 -25.5874 139.992 84.8242 129.068 10.0543 10.8655 0.147529 111.467 -6.20852 78.2461 35.4712 59.0001 66.9892 16.4426 20.1928 2.22845 23.4337 -12.3709 -14.2168 -29.3283 14.2694 76.5696 0.584874 -2.85922 -0.219897 -1.18446e-009 1.5602e-007 -4.87131e-009 
-226.09 98.2882 -122.693 10.457 6.16766 126.508 -15.3442 -6.22157 -5.36994 22.2284 38.9602 -24.7033 -16.6604 0.304494 -1.01308 0.0462048 0.000533403 0.662642 2.36126 21.185 -6.06704 -0.0064176 0.00990849 -0.0202906 -5.42407 5.19381 6.692 -7.95139e-016 7.95139e-016 3.18055e-015 -163.092 -68.8755 -123.71 -89.8446 -10.4855 -22.1537 32.0205 82.2838 -114.325 10.8461 10.3797 -1.90835 110.706 -6.76156 77.7194 35.1458 58.6965 69.2978 17.1496 20.1416 1.99975 23.682 -11.7511 -13.9193 -29.2448 13.6674 75.4919 0.792485 -3.05621 -0.227677 -1.18447e-009 1.5602e-007 -4.87131e-009 
